<?xml version="1.0"?><svg width="133.33333333333331" height="133.33333333333331" xmlns="http://www.w3.org/2000/svg" xmlns:xlink="http://www.w3.org/1999/xlink">
 <title>girl</title>
 <defs>
  <linearGradient id="linearGradient7971">
   <stop stop-color="#ffffff" offset="0" id="stop7972"/>
   <stop stop-color="#000000" offset="1" id="stop7973"/>
  </linearGradient>
  <linearGradient id="linearGradient972">
   <stop stop-color="#ffffff" stop-opacity="0.775132" offset="0" id="stop973"/>
   <stop stop-color="#ffffff" stop-opacity="0" offset="1" id="stop974"/>
  </linearGradient>
  <linearGradient id="linearGradient975">
   <stop stop-color="#000000" stop-opacity="0.526455" offset="0" id="stop976"/>
   <stop stop-color="#000000" stop-opacity="0" offset="1" id="stop977"/>
  </linearGradient>
  <linearGradient id="linearGradient978">
   <stop stop-color="#ffffff" stop-opacity="0.666667" offset="0" id="stop979"/>
   <stop stop-color="#ffffff" stop-opacity="0" offset="1" id="stop980"/>
  </linearGradient>
  <linearGradient id="linearGradient981">
   <stop stop-color="#000" offset="0" id="stop982"/>
   <stop stop-color="#fff" offset="1" id="stop983"/>
  </linearGradient>
  <linearGradient id="linearGradient4384">
   <stop stop-color="#ffffff" stop-opacity="0.775132" offset="0" id="stop4385"/>
   <stop stop-color="#ffffff" stop-opacity="0" offset="1" id="stop4386"/>
  </linearGradient>
  <linearGradient id="linearGradient4376">
   <stop stop-color="#000000" stop-opacity="0.526455" offset="0" id="stop4377"/>
   <stop stop-color="#000000" stop-opacity="0" offset="1" id="stop4378"/>
  </linearGradient>
  <linearGradient id="linearGradient4362">
   <stop stop-color="#ffffff" stop-opacity="0.666667" offset="0" id="stop4363"/>
   <stop stop-color="#ffffff" stop-opacity="0" offset="1" id="stop4364"/>
  </linearGradient>
  <linearGradient id="linearGradient4358">
   <stop stop-color="#000" offset="0" id="stop4359"/>
   <stop stop-color="#fff" offset="1" id="stop4360"/>
  </linearGradient>
  <linearGradient id="linearGradient1722">
   <stop stop-color="#ffffff" offset="0" id="stop1723"/>
   <stop stop-color="#000000" offset="1" id="stop1724"/>
  </linearGradient>
  <linearGradient id="linearGradient1719">
   <stop stop-color="#ffffff" stop-opacity="0.775132" offset="0" id="stop1720"/>
   <stop stop-color="#ffffff" stop-opacity="0" offset="1" id="stop1721"/>
  </linearGradient>
  <linearGradient id="linearGradient1716">
   <stop stop-color="#000000" stop-opacity="0.526455" offset="0" id="stop1717"/>
   <stop stop-color="#000000" stop-opacity="0" offset="1" id="stop1718"/>
  </linearGradient>
  <linearGradient id="linearGradient1713">
   <stop stop-color="#ffffff" stop-opacity="0.666667" offset="0" id="stop1714"/>
   <stop stop-color="#ffffff" stop-opacity="0" offset="1" id="stop1715"/>
  </linearGradient>
  <linearGradient id="linearGradient1710">
   <stop stop-color="#000" offset="0" id="stop1711"/>
   <stop stop-color="#fff" offset="1" id="stop1712"/>
  </linearGradient>
  <linearGradient id="linearGradient1707">
   <stop stop-color="#ffffff" stop-opacity="0.775132" offset="0" id="stop1708"/>
   <stop stop-color="#ffffff" stop-opacity="0" offset="1" id="stop1709"/>
  </linearGradient>
  <linearGradient id="linearGradient1704">
   <stop stop-color="#000000" stop-opacity="0.526455" offset="0" id="stop1705"/>
   <stop stop-color="#000000" stop-opacity="0" offset="1" id="stop1706"/>
  </linearGradient>
  <linearGradient id="linearGradient1701">
   <stop stop-color="#ffffff" stop-opacity="0.666667" offset="0" id="stop1702"/>
   <stop stop-color="#ffffff" stop-opacity="0" offset="1" id="stop1703"/>
  </linearGradient>
  <linearGradient id="linearGradient1698">
   <stop stop-color="#000" offset="0" id="stop1699"/>
   <stop stop-color="#fff" offset="1" id="stop1700"/>
  </linearGradient>
  <linearGradient y2="0.320313" y1="0.085938" xlink:href="#linearGradient1716" x2="0.44186" x1="0.44186" id="linearGradient1742"/>
  <radialGradient xlink:href="#linearGradient1719" r="0.267641" id="radialGradient1746" fy="0.28125" fx="0.318841" cy="0.273438" cx="0.297101"/>
  <radialGradient xlink:href="#linearGradient1707" r="0.5" id="radialGradient1747" fy="0.5" fx="0.5" cy="0.5" cx="0.5"/>
  <radialGradient xlink:href="#linearGradient1707" r="0.5" id="radialGradient1748" fy="0.5" fx="0.5" cy="0.5" cx="0.5"/>
  <radialGradient xlink:href="#linearGradient1707" r="0.456839" id="radialGradient1752" fy="0.359375" fx="0.326667" cy="0.375" cx="0.34"/>
 </defs>
 <g>
  <title>Layer 1</title>
  <path fill="#ffffff" fill-rule="evenodd" stroke="#000000" stroke-width="3.75" stroke-linecap="round" stroke-linejoin="round" stroke-miterlimit="4" id="path9383" d="m55.115788,74.002609c4.749401,5.183556 7.771755,14.470779 14.464092,14.470779c6.476456,-1.79985 7.339981,-17.206543 8.203514,-20.518257c-7.339989,5.039566 -14.895851,7.919319 -22.667606,6.047478z"/>
  <path fill="#ebbba1" fill-rule="evenodd" stroke="#000000" stroke-width="8.504164" stroke-linecap="round" stroke-linejoin="round" stroke-miterlimit="4" id="path3713" d="m84.1763,49.583302a26.8668,25.504601 0 1 0 -53.7335,0a26.8668,25.504601 0 1 0 53.7335,0z"/>
  <path fill="#ff3500" fill-rule="evenodd" stroke="#000000" stroke-width="3.75" stroke-linecap="round" stroke-linejoin="round" stroke-miterlimit="4" id="path4369" d="m26.117418,100.80928c-0.390636,25.196259 64.23876,28.077621 64.082464,0c1.544777,-22.328743 -9.560448,-35.024445 -12.320122,-32.865974c-1.401237,1.095985 -1.921883,25.43576 -11.389801,19.83712c-4.602875,-2.721802 -9.751335,-13.176865 -12.003944,-13.523727c-3.399075,-0.523407 -9.907837,-3.275497 -15.885544,-8.426224c-1.568291,-1.351303 -11.9536,12.539001 -12.483053,34.978806z"/>
  <path fill="#3b1b00" fill-rule="evenodd" stroke="#000000" stroke-width="3.75" stroke-linecap="round" stroke-linejoin="round" stroke-miterlimit="4" id="path3720" d="m28.4408,38.8265c0.0408,6.904499 32.070801,9.896702 47.0014,2.262299c-3.456802,29.150299 -4.686203,43.034203 23.343102,22.584602c6.2257,-4.542 2.176697,-46.298401 -22.072502,-55.514081c-12.229797,-4.97369 -42.0364,-6.59392 -48.271999,30.66718z"/>
  <path fill="url(#linearGradient1742)" fill-rule="evenodd" stroke-width="8.504164" stroke-linecap="round" stroke-linejoin="round" stroke-miterlimit="4" id="path1736" d="m35.972038,42.743683c-0.756927,2.355492 -1.3125,4.785431 -1.3125,7.375c0,14.078545 12.044548,25.5 26.875,25.5c6.561394,0 12.489105,-2.31794 17.15625,-6.03125c-0.693909,-2.255074 -0.895515,-5.343483 -0.78125,-9.125c-7.132378,6.995789 -22.474487,11.29615 -23.5625,3.78125c-0.751167,-10.86467 15.370033,2.079285 21.6875,-11c-1.805656,-3.161552 -2.568527,-7.475388 0.5625,-10.46875c-12.63488,4.783432 -32.895508,3.834816 -40.625,-0.03125z"/>
  <path fill="url(#radialGradient1746)" fill-rule="evenodd" stroke-width="3.75" stroke-linecap="round" stroke-linejoin="round" stroke-miterlimit="4" id="path1744" d="m57.4375,7.3125c-13.934799,1.3975 -24.3046,15.090401 -25.0937,28.3125c13.109299,5.7276 28.695099,3.460499 42.0937,-0.7187c7.763802,3.385002 2.148003,13.518902 2.75,19.9062c0.0084,4.029301 -1.843597,14.372002 5.333199,10.957703c5.710999,-3.146202 14.564499,-6.022003 13.751602,-13.863701c0.567902,-15.088703 -5.344597,-31.579903 -17.897301,-40.594002c-6.497398,-3.44787 -13.640404,-4.56953 -20.9375,-4z"/>
  <path fill="url(#radialGradient1752)" fill-rule="evenodd" stroke-width="3.75" stroke-linecap="round" stroke-linejoin="round" stroke-miterlimit="4" id="path1751" d="m25.019279,101.375038c-0.39064,25.196251 64.238762,28.077614 64.082474,0c1.544769,-22.328735 -9.560455,-35.024445 -12.320137,-32.865974c-1.40123,1.095978 -1.921867,25.435753 -11.389793,19.83712c-4.602882,-2.721802 -9.751343,-13.176865 -12.003952,-13.523727c-3.399071,-0.523407 -9.907822,-3.275505 -15.88554,-8.426208c-1.568291,-1.351326 -11.9536,12.538979 -12.483051,34.97879z"/>
 </g>
</svg>