<?xml version="1.0" encoding="UTF-8" standalone="no"?>
<!-- Created with Inkscape (http://www.inkscape.org/) -->

<svg
   xmlns:dc="http://purl.org/dc/elements/1.1/"
   xmlns:cc="http://creativecommons.org/ns#"
   xmlns:rdf="http://www.w3.org/1999/02/22-rdf-syntax-ns#"
   xmlns:svg="http://www.w3.org/2000/svg"
   xmlns="http://www.w3.org/2000/svg"
   xmlns:sodipodi="http://sodipodi.sourceforge.net/DTD/sodipodi-0.dtd"
   xmlns:inkscape="http://www.inkscape.org/namespaces/inkscape"
   width="744.09448819"
   height="1052.3622047"
   id="svg3837"
   version="1.1"
   inkscape:version="0.48.1 r9760"
   sodipodi:docname="negotiation.svg"
   inkscape:export-filename="/home/pir/Desktop/Solfed/ImageBank/now/negotiation.png"
   inkscape:export-xdpi="90"
   inkscape:export-ydpi="90">
  <defs
     id="defs3839" />
  <sodipodi:namedview
     id="base"
     pagecolor="#ffffff"
     bordercolor="#666666"
     borderopacity="1.0"
     inkscape:pageopacity="0.0"
     inkscape:pageshadow="2"
     inkscape:zoom="0.7"
     inkscape:cx="336.14296"
     inkscape:cy="740.77999"
     inkscape:document-units="px"
     inkscape:current-layer="layer1"
     showgrid="false"
     inkscape:window-width="1366"
     inkscape:window-height="748"
     inkscape:window-x="-3"
     inkscape:window-y="-3"
     inkscape:window-maximized="1" />
  <metadata
     id="metadata3842">
    <rdf:RDF>
      <cc:Work
         rdf:about="">
        <dc:format>image/svg+xml</dc:format>
        <dc:type
           rdf:resource="http://purl.org/dc/dcmitype/StillImage" />
        <dc:title></dc:title>
      </cc:Work>
    </rdf:RDF>
  </metadata>
  <g
     inkscape:label="Layer 1"
     inkscape:groupmode="layer"
     id="layer1">
    <path
       style="fill:#000000"
       d="m 35.281757,448.83026 31.894885,-10.74124 0,-51.15461 0,-51.15462 6.964245,0 6.964267,0 0.463309,50.97382 0.46332,50.97379 32.331797,10.93052 32.33179,10.9305 -71.654237,-0.009 -71.6542516,-0.009 31.8948756,-10.74127 z m 135.087043,8.81162 c -2.35906,-1.19382 -6.88114,-5.56883 -10.04907,-9.72226 l -5.75985,-7.55168 0,-67.92561 0,-67.92558 -4.21527,-4.90355 -4.21527,-4.90352 -37.29176,-1.05226 C 80.508739,292.85806 70.07563,291.9458 65.428974,289.86178 49.166681,282.56818 33.809178,255.79653 36.442121,239.331 37.025789,235.68094 48.169936,201.82034 61.206865,164.08522 78.929594,112.78719 86.090621,94.219212 89.587921,90.495321 97.438147,82.136437 108.14683,75.66316 119.21539,72.585836 c 9.97094,-2.77217 11.17047,-2.759826 22.21083,0.228665 8.75975,2.371161 13.76149,5.038938 20.05339,10.695888 11.05633,9.94061 14.25071,17.080011 14.58831,32.604711 0.24831,11.41967 -0.70211,15.19794 -10.41496,41.40291 l -10.68821,28.83646 35.18777,0.87384 c 40.8217,1.01374 44.97406,2.20699 48.48754,13.93396 1.73553,5.79267 1.59356,8.18143 -0.86953,14.63094 -5.5064,14.41832 -4.51415,14.13996 -53.91915,15.1267 -43.4077,0.86697 -43.76299,0.90476 -45.20356,4.80608 -1.40432,3.80324 -1.10677,3.93225 9.06963,3.93225 5.78686,0 15.98535,1.24272 22.66331,2.76157 l 12.14174,2.76159 0,107.34127 0,107.34131 -3.93224,-0.0258 c -2.16273,-0.014 -5.86239,-1.00254 -8.22146,-2.19634 z m 22.63969,-107.88078 0,-110.10286 177.38795,0 177.38796,0 0,110.10286 0,110.10288 -177.38796,0 -177.38795,0 0,-110.10288 z m 363.51423,2.76631 0,-107.33654 9.17524,-2.10097 c 5.04639,-1.15554 15.60309,-2.49584 23.45936,-2.97844 14.20962,-0.87289 14.27444,-0.8987 12.4283,-4.95056 l -1.85583,-4.07309 -43.26934,-0.52085 c -48.91672,-0.58886 -47.91508,-0.31195 -53.43809,-14.77375 -2.46309,-6.44951 -2.60507,-8.83827 -0.86953,-14.63094 3.49732,-11.67301 7.75477,-12.91893 47.61413,-13.93396 l 34.31434,-0.87384 -10.21297,-27.96264 c -12.98978,-35.56539 -13.25117,-36.99151 -9.39517,-51.26078 2.68095,-9.920882 4.59919,-13.104733 12.89164,-21.397197 8.31129,-8.311282 11.46597,-10.2079 21.48021,-12.914092 10.19284,-2.754456 12.83873,-2.878227 20.09814,-0.940208 4.598,1.227507 11.89901,4.438911 16.22449,7.136447 16.52257,10.304176 17.01053,11.24722 42.57914,82.29108 13.03093,36.20716 24.59246,70.81092 25.69228,76.89724 1.81877,10.06473 1.64377,12.00693 -1.93385,21.46367 -4.51505,11.93457 -16.66548,26.00672 -26.06095,30.1827 -4.70173,2.08979 -15.09516,3.00839 -43.0706,3.80673 -28.49015,0.81302 -37.62888,1.63516 -40.19629,3.61613 -1.82757,1.41014 -3.71607,2.8507 -4.19669,3.20125 -0.4806,0.35056 -1.26705,32.22767 -1.74766,70.83804 l -0.87383,70.20066 -5.97098,7.42579 c -5.43531,6.75963 -13.24567,10.88177 -20.68091,10.91493 -1.72405,0.007 -2.18458,-22.61747 -2.18458,-107.32681 z m 71.21734,96.30285 31.89488,-10.74124 0,-51.15461 0,-51.15462 6.96426,0 6.96426,0 0.46332,50.96791 0.46331,50.9679 30.38447,10.14635 c 16.71147,5.58047 30.80202,10.56385 31.31233,11.07417 0.5103,0.51033 -30.85781,0.86206 -69.70692,0.78163 l -70.63479,-0.14628 31.89488,-10.74127 z M 66.302803,325.78665 C 52.358064,322.39811 30.451033,308.87523 23.856033,299.58493 5.632111,273.91308 4.2551347,267.34287 4.2845784,206.20036 c 0.013108,-27.25592 0.4730037,-51.22985 1.0219538,-53.27539 1.4095173,-5.25234 8.5385368,-8.23645 13.4722888,-5.63937 2.107803,1.10955 4.410164,2.88267 5.116355,3.94029 0.706191,1.05763 1.296648,25.51642 1.312134,54.35289 l 0.02817,52.42994 5.080877,10.73996 c 6.476045,13.68904 16.35876,24.65647 26.374334,29.26915 6.940442,3.19643 11.868664,3.68584 41.943953,4.16526 18.743681,0.29878 36.140161,1.34861 38.658821,2.33294 6.65783,2.602 9.20124,9.16363 5.97237,15.40765 -1.4069,2.72062 -3.83106,5.43509 -5.38705,6.03217 -3.26477,1.25282 -66.337611,1.1037 -71.575947,-0.16916 z M 602.00647,323.5906 c -5.58423,-5.58423 -6.35726,-11.98438 -1.97714,-16.36936 3.55344,-3.55739 5.8411,-3.825 39.98874,-4.67804 31.75592,-0.79328 37.18891,-1.35109 44.08417,-4.52607 10.01522,-4.61161 19.89803,-15.57891 26.37432,-29.26845 l 5.08089,-10.73996 10e-4,-50.16313 c 9.1e-4,-33.14143 0.66207,-51.61317 1.94841,-54.43642 4.15875,-9.12746 15.12326,-8.80601 19.00158,0.55709 1.34633,3.25037 1.79396,21.68787 1.42886,58.85419 l -0.53167,54.12105 -6.57258,13.29213 c -9.17003,18.54509 -27.4753,35.70943 -45.01757,42.21174 -11.81728,4.38027 -13.9953,4.59611 -46.37905,4.59611 -31.50335,0 -34.23094,-0.25148 -37.43033,-3.45088 z M 287.38238,166.19862 c 0,-73.812352 -0.1482,-72.924355 13.78091,-82.598206 l 8.06489,-5.601151 59.25533,-0.50399 59.25531,-0.50399 9.06214,6.01693 c 15.12898,10.045072 14.86189,8.552029 14.86189,83.075317 l 0,64.83638 -22.71964,0 -22.71964,0 0,-47.18694 0,-47.18694 -36.70096,0 -36.70094,0 0,25.34113 c 0,25.10322 0.0368,25.34151 3.93223,25.37951 2.16274,0.0211 7.22488,1.53328 11.24924,3.36039 5.97354,2.71205 7.70579,4.61972 9.43464,10.39009 1.78673,5.96365 1.65768,8.27254 -0.82605,14.77606 -5.28167,13.82983 -6.21815,14.17908 -39.69741,14.80487 l -29.53194,0.55199 0,-64.95145 z M 148.44304,63.891079 c -11.85555,-6.165959 -20.09815,-18.75066 -20.09815,-30.685638 0,-14.599188 15.77076,-29.4919371 32.71901,-30.89741 8.38198,-0.6951016 10.23247,-0.1581676 18.60028,5.397816 10.82038,7.18434 15.09198,14.745082 15.09198,26.712923 0,9.996839 -7.57698,23.14706 -16.52253,28.67573 -7.03714,4.349197 -22.18122,4.754135 -29.79059,0.796579 z m 207.38592,-0.203485 c -3.20604,-1.579772 -8.51456,-6.859889 -11.79673,-11.733626 -10.5177,-15.617879 -7.43072,-32.962606 7.72211,-43.3880185 21.71146,-14.9378867 48.78164,-2.5094997 50.64506,23.2520535 0.67231,9.294533 0.19157,11.135874 -5.03274,19.277255 -3.17683,4.950646 -8.18539,10.47041 -11.13014,12.266161 -6.77225,4.129771 -22.34922,4.296846 -30.40756,0.326175 z m 210.30592,0.203485 c -11.85557,-6.165959 -20.09815,-18.75066 -20.09815,-30.685638 0,-14.599188 15.77076,-29.4919371 32.71902,-30.89741 8.38196,-0.6951016 10.23246,-0.1581676 18.60027,5.397816 10.82038,7.18434 15.09197,14.745082 15.09197,26.712923 0,9.996839 -7.57696,23.14706 -16.52252,28.67573 -7.03714,4.349197 -22.18122,4.754135 -29.79059,0.796579 z"
       id="path3856"
       inkscape:connector-curvature="0" />
  </g>
</svg>
